<?xml version="1.0" encoding="utf-8"?>
<!-- Svg Vector Icons : http://www.onlinewebfonts.com/icon -->
<!DOCTYPE svg PUBLIC "-//W3C//DTD SVG 1.1//EN" "http://www.w3.org/Graphics/SVG/1.1/DTD/svg11.dtd">
<svg version="1.1" xmlns="http://www.w3.org/2000/svg" xmlns:xlink="http://www.w3.org/1999/xlink" x="0px" y="0px" viewBox="0 0 1000 1000" enable-background="new 0 0 1000 1000" xml:space="preserve">
<metadata> Svg Vector Icons : http://www.onlinewebfonts.com/icon </metadata>
<g><path d="M22.1,336h210.5v632.3H22.1V336L22.1,336z"/><path d="M923.6,393.8c-44.2-48.3-102.7-72.4-175.4-72.4c-26.8,0-51.2,3.3-73.1,9.9c-21.9,6.6-40.4,15.8-55.5,27.8c-15.1,11.9-27.1,23-36,33.2c-8.5,9.7-16.8,21-24.9,33.8V336H348.8l0.6,30.6c0.4,20.4,0.6,83.4,0.6,188.9c0,105.5-0.4,243.1-1.3,412.8h209.9V615.5c0-21.7,2.3-38.9,7-51.7c8.9-21.7,22.4-39.9,40.5-54.5c18.1-14.7,40.5-22,67.3-22c36.6,0,63.5,12.7,80.7,38c17.2,25.3,25.8,60.3,25.8,105v338.1H990V605.9C990,512.8,967.9,442.1,923.6,393.8z"/><path d="M128.7,31.7c-35.3,0-63.9,10.3-85.8,30.9C20.9,83.3,10,109.3,10,140.8c0,31,10.6,57,31.9,77.8c21.3,20.8,49.3,31.3,84.2,31.3h1.3c35.7,0,64.6-10.4,86.5-31.3c21.9-20.8,32.6-46.8,32.2-77.8c-0.4-31.5-11.3-57.5-32.5-78.2C192.3,42,164,31.7,128.7,31.7z"/></g>
</svg>